<svg width="20" height="32" viewBox="0 0 20 32" fill="none" xmlns="http://www.w3.org/2000/svg">
<rect x="14.5974" y="10.6167" width="1.32705" height="1.32705" fill="#E68711"/>
<rect x="6.63525" y="14.5978" width="1.32705" height="1.32705" fill="#E68711"/>
<rect x="10.6163" y="14.5978" width="1.32705" height="1.32705" fill="#E68711"/>
<rect x="2.65405" y="10.6167" width="1.32705" height="1.32705" fill="#E68711"/>
<rect x="10.6163" y="2.65442" width="1.32705" height="2.65409" fill="#E68711"/>
<rect x="6.63525" y="2.65442" width="1.32705" height="2.65409" fill="#E68711"/>
<rect x="11.9434" y="5.30847" width="1.32705" height="1.32705" fill="#FFB519"/>
<rect x="14.5974" y="5.30847" width="1.32705" height="1.32705" fill="#FFCB5D"/>
<rect x="7.96216" y="14.5978" width="1.32705" height="1.32705" fill="#FFCB5D"/>
<rect x="11.9434" y="5.30847" width="2.65409" height="1.32705" transform="rotate(-90 11.9434 5.30847)" fill="#FFCB5D"/>
<rect x="7.96216" y="3.98145" width="2.65409" height="1.32705" transform="rotate(-90 7.96216 3.98145)" fill="#FFCB5D"/>
<rect width="2.65409" height="1.32705" transform="matrix(0 1 1 0 3.98108 1.32739)" fill="#FFCB5D"/>
<rect x="3.98108" y="14.5978" width="1.32705" height="1.32705" fill="#FFCB5D"/>
<rect x="7.96216" y="17.2519" width="1.32705" height="1.32705" fill="#3D6B2D"/>
<rect x="1.32703" y="19.906" width="1.32705" height="1.32705" fill="#2F521C"/>
<rect x="15.9246" y="22.5601" width="1.32705" height="1.32705" fill="#3D6B2D"/>
<rect x="17.2516" y="21.233" width="1.32705" height="1.32705" fill="#3D6B2D"/>
<rect x="18.5786" y="19.906" width="1.32705" height="1.32705" fill="#2F521C"/>
<rect x="1.32703" y="25.2142" width="1.32705" height="1.32705" fill="#2F521C"/>
<rect x="14.5974" y="18.5789" width="5.30819" height="1.32705" fill="#3D6B2D"/>
<rect x="2.65405" y="23.8871" width="3.98114" height="1.32705" fill="#3D6B2D"/>
<rect x="15.9246" y="21.233" width="1.32705" height="1.32705" fill="#467937"/>
<rect x="17.2516" y="19.906" width="1.32705" height="1.32705" fill="#467937"/>
<rect x="5.30811" y="25.2142" width="1.32705" height="1.32705" fill="#467937"/>
<rect x="15.9246" y="19.906" width="1.32705" height="1.32705" fill="#5E8322"/>
<rect y="17.2519" width="1.32705" height="2.65409" fill="#2F521C"/>
<rect x="2.65405" y="21.233" width="2.65409" height="1.32705" fill="#3D6B2D"/>
<rect x="13.2704" y="23.8871" width="2.65409" height="1.32705" fill="#3D6B2D"/>
<rect x="2.65405" y="26.5412" width="2.65409" height="1.32705" fill="#3D6B2D"/>
<rect x="2.65405" y="19.906" width="2.65409" height="1.32705" fill="#467937"/>
<rect x="13.2704" y="22.5601" width="2.65409" height="1.32705" fill="#467937"/>
<rect x="13.2704" y="19.906" width="2.65409" height="1.32705" fill="#2F521C"/>
<rect x="1.32703" y="18.5789" width="2.65409" height="1.32705" fill="#5E8322"/>
<rect x="13.2704" y="21.233" width="2.65409" height="1.32705" fill="#5E8322"/>
<rect x="2.65405" y="25.2142" width="2.65409" height="1.32705" fill="#5E8322"/>
<path d="M7.9624 22.5604H5.30811V18.5789H6.63525V21.2332H7.9624V22.5604Z" fill="#2F521C"/>
<path d="M5.30786 27.8685H7.96216V25.2142H6.63501V26.5413H5.30786V27.8685Z" fill="#2F521C"/>
<path d="M10.6161 25.2145H13.2704V21.233H11.9432V23.8873H10.6161V25.2145Z" fill="#2F521C"/>
<path d="M5.30847 19.9062V17.2519H1.32703V18.579H3.98132V19.9062H5.30847Z" fill="#3D6B2D"/>
<rect x="7.96216" y="27.8683" width="1.32705" height="3.98114" fill="#3D6B2D"/>
<rect x="7.96216" y="18.5789" width="1.32705" height="9.28932" fill="#618B39"/>
<rect x="9.28931" y="17.2519" width="1.32705" height="14.5975" fill="#2F521C"/>
<rect x="5.30811" y="5.30847" width="1.32705" height="1.32705" fill="#FFB519"/>
<rect x="11.9434" y="14.5978" width="1.32705" height="1.32705" fill="#FFCB5D"/>
<path d="M14.5975 6.63562H15.9247V7.96277H13.2704V5.30847H14.5975V6.63562Z" fill="#E68711"/>
<path d="M9.28931 15.9247V14.5976H10.6165V17.2519H7.96216V15.9247H9.28931Z" fill="#FFB519"/>
<path d="M15.9244 5.30835H14.5973V3.9812H17.2516V6.6355H15.9244V5.30835Z" fill="#FFB519"/>
<path d="M13.2703 2.65417H11.9431V1.32703H14.5974V5.30847H13.2703V2.65417Z" fill="#FFB519"/>
<path d="M9.28918 1.32715H7.96204V0H10.6163V3.98145H9.28918V1.32715Z" fill="#FFB519"/>
<path d="M5.30811 3.98169H3.98096V5.30884H6.63525V1.32739H5.30811V3.98169Z" fill="#FFB519"/>
<path d="M5.30823 15.9247V14.5976H6.63538V17.2519H3.98108V15.9247H5.30823Z" fill="#FFB519"/>
<path d="M13.2705 15.9247V14.5976H14.5977V17.2519H11.9434V15.9247H13.2705Z" fill="#FFB519"/>
<path d="M3.98096 6.63562H2.65381V7.96277H5.30811V5.30847H3.98096V6.63562Z" fill="#E68711"/>
<path d="M5.30811 13.2707V11.9435H3.98096V14.5978H6.63525V13.2707H5.30811Z" fill="#E68711"/>
<path d="M13.2703 13.2709H11.9431V14.598H14.5974V11.9437H13.2703V13.2709Z" fill="#E68711"/>
<rect x="14.5974" y="7.96259" width="3.98114" height="1.32705" fill="#FFCB5D"/>
<rect y="7.96259" width="3.98114" height="1.32705" fill="#FFCB5D"/>
<rect x="1.32703" y="11.9437" width="2.65409" height="1.32705" fill="#FFCB5D"/>
<rect x="1.32703" y="3.98145" width="2.65409" height="1.32705" fill="#FFCB5D"/>
<rect width="2.65409" height="1.32705" transform="matrix(0 1 1 0 14.5974 11.9437)" fill="#FFCB5D"/>
<rect x="2.65405" y="7.96259" width="1.32705" height="1.32705" fill="#FFB519"/>
<rect x="14.5974" y="9.28961" width="3.98114" height="1.32705" fill="#FFB519"/>
<rect y="9.28961" width="3.98114" height="1.32705" fill="#FFB519"/>
<rect x="1.32703" y="13.2708" width="2.65409" height="1.32705" fill="#FFB519"/>
<rect x="7.96216" y="3.98145" width="2.65409" height="1.32705" fill="#FFB519"/>
<rect x="1.32703" y="5.30847" width="2.65409" height="1.32705" fill="#FFB519"/>
<rect width="2.65409" height="1.32705" transform="matrix(0 1 1 0 15.9246 11.9437)" fill="#FFB519"/>
<path d="M10.6165 9.28967H11.9436V10.6168H10.6165V11.944H7.96216V10.6168H9.28931V7.96252H10.6165V9.28967Z" fill="#6F391F"/>
<path d="M11.9438 14.5974H6.63525V13.2703H11.9438V14.5974ZM13.27 13.2703H11.9438V11.9441H13.27V13.2703ZM13.27 7.96265H14.5972V11.9441H13.27V9.28979H11.9438V6.6355H13.27V7.96265Z" fill="#5F2B1D"/>
<path d="M11.943 13.2704H10.6158V11.9432H11.943V13.2704ZM13.2701 11.9432H11.943V10.6171H13.2701V11.9432ZM11.943 7.96277H10.6158V6.63562H7.96252V7.96277H6.63538V9.28992H5.30823V10.6171H6.63538V11.9432H7.96252V13.2704H5.30823V11.9432H3.98108V7.96277H5.30823V6.63562H6.63538V5.30847H11.943V7.96277Z" fill="#6F391F"/>
<rect x="6.63525" y="7.96252" width="1.32705" height="1.32705" fill="#975C3E"/>
<rect x="7.96216" y="6.6355" width="1.32705" height="1.32705" fill="#975C3E"/>
<path d="M10.6167 13.2703H7.9624V11.9441H10.6167V13.2703ZM9.28955 10.6169H7.9624V11.9441H6.63525V10.6169H5.30811V9.28979H7.9624V7.96265H9.28955V10.6169ZM11.9429 11.9441H10.6167V10.6169H11.9429V11.9441ZM13.27 10.6169H11.9438V9.28979H13.27V10.6169ZM11.9429 9.28979H10.6167V7.96265H11.9429V9.28979ZM10.6167 7.96265H9.28955V6.6355H10.6167V7.96265Z" fill="#874C2C"/>
</svg>
